<?xml version="1.0" encoding="UTF-8" standalone="no"?>
<!DOCTYPE svg PUBLIC "-//W3C//DTD SVG 1.0//EN" "http://www.w3.org/TR/2001/REC-SVG-20010904/DTD/svg10.dtd">
<!-- Generated by dot version 1.13 (v16) (Mon August 23, 2004)
     For user: (haubi) Haubi   Title: ac    Pages: 1 -->
<svg width="332pt" height="644pt" viewBox="-1 -1 331 643" xmlns="http://www.w3.org/2000/svg">
<g id="graph0" class="graph" style="font-family: Times-Roman;">
<title>ac</title>
<g id="graph2" class="cluster"><title>cluster_0</title>
<polygon style="fill: none; stroke: lightgrey; stroke-dasharray: 5, 2;" points="13,376 317,376 317,12 13,12 13,376"/>
<text text-anchor="middle" x="165" y="29">developer</text>
</g>
<g id="graph3" class="cluster"><title>cluster_1</title>
<polygon style="fill: none; stroke: lightgrey; stroke-dasharray: 5, 2;" points="124,620 230,620 230,396 124,396 124,620"/>
<text text-anchor="middle" x="177" y="613">user</text>
</g>
<g id="node2" class="node"><title>autoscan</title>
<ellipse cx="106" cy="62" rx="36" ry="18" style="fill: none; stroke: black;"/>
<text text-anchor="middle" x="106" y="67">autoscan</text>
</g>
<g id="node4" class="node"><title>configure.ac</title>
<polygon style="fill: none; stroke: black;" points="147,116 65,116 65,152 147,152 147,116"/>
<text text-anchor="middle" x="106" y="139">configure.ac</text>
</g>
<g id="edge3" class="edge"><title>autoscan-&gt;configure.ac</title>
<path style="fill: none; stroke: black;" d="M106,80C106,88 106,97 106,106"/>
<polygon style="fill: black; stroke: black;" points="110,106 106,116 103,106 110,106"/>
</g>
<g id="node6" class="node"><title>autoconf</title>
<ellipse cx="112" cy="350" rx="36" ry="18" style="fill: none; stroke: black;"/>
<text text-anchor="middle" x="112" y="355">autoconf</text>
</g>
<g id="edge5" class="edge"><title>configure.ac-&gt;autoconf</title>
<path style="fill: none; stroke: black;" d="M107,152C108,190 110,277 112,322"/>
<polygon style="fill: black; stroke: black;" points="116,322 112,332 109,322 116,322"/>
</g>
<g id="node8" class="node"><title>aclocal</title>
<ellipse cx="54" cy="206" rx="32" ry="18" style="fill: none; stroke: black;"/>
<text text-anchor="middle" x="54" y="211">aclocal</text>
</g>
<g id="edge7" class="edge"><title>configure.ac-&gt;aclocal</title>
<path style="fill: none; stroke: black;" d="M93,152C86,160 79,171 72,181"/>
<polygon style="fill: black; stroke: black;" points="75,183 66,189 69,179 75,183"/>
</g>
<g id="node10" class="node"><title>autoheader</title>
<ellipse cx="168" cy="206" rx="43" ry="18" style="fill: none; stroke: black;"/>
<text text-anchor="middle" x="168" y="211">autoheader</text>
</g>
<g id="edge9" class="edge"><title>configure.ac-&gt;autoheader</title>
<path style="fill: none; stroke: black;" d="M122,152C130,161 139,171 146,181"/>
<polygon style="fill: black; stroke: black;" points="149,179 153,189 144,184 149,179"/>
</g>
<g id="node22" class="node"><title>configure</title>
<polygon style="fill: none; stroke: black;" points="222,424 199,405 155,405 132,424 155,443 199,443 222,424"/>
<text text-anchor="middle" x="177" y="429">configure</text>
</g>
<g id="edge25" class="edge"><title>autoconf-&gt;configure</title>
<path style="fill: none; stroke: black;" d="M127,367C135,376 144,387 153,397"/>
<polygon style="fill: black; stroke: black;" points="155,394 160,404 150,399 155,394"/>
</g>
<g id="node12" class="node"><title>aclocal.m4</title>
<polygon style="fill: none; stroke: black;" points="97,260 21,260 21,296 97,296 97,260"/>
<text text-anchor="middle" x="59" y="283">aclocal.m4</text>
</g>
<g id="edge11" class="edge"><title>aclocal-&gt;aclocal.m4</title>
<path style="fill: none; stroke: black;" d="M55,224C56,232 56,241 57,250"/>
<polygon style="fill: black; stroke: black;" points="60,250 58,260 54,250 60,250"/>
</g>
<g id="node14" class="node"><title>config.h.in</title>
<polygon style="fill: none; stroke: black;" points="210,260 136,260 136,296 210,296 210,260"/>
<text text-anchor="middle" x="173" y="283">config.h.in</text>
</g>
<g id="edge14" class="edge"><title>autoheader-&gt;config.h.in</title>
<path style="fill: none; stroke: black;" d="M169,224C170,232 170,241 171,250"/>
<polygon style="fill: black; stroke: black;" points="174,250 172,260 168,250 174,250"/>
</g>
<g id="edge12" class="edge"><title>aclocal.m4-&gt;autoconf</title>
<path style="fill: none; stroke: black;" d="M72,296C78,304 86,315 93,325"/>
<polygon style="fill: black; stroke: black;" points="96,323 99,333 90,327 96,323"/>
</g>
<g id="edge29" class="edge"><title>config.h.in-&gt;configure</title>
<path style="fill: none; stroke: black;" d="M173,296C174,320 176,365 177,394"/>
<polygon style="fill: black; stroke: black;" points="181,394 177,404 174,394 181,394"/>
</g>
<g id="node15" class="node"><title>Makefile.am</title>
<polygon style="fill: none; stroke: black;" points="309,116 223,116 223,152 309,152 309,116"/>
<text text-anchor="middle" x="266" y="139">Makefile.am</text>
</g>
<g id="node17" class="node"><title>automake</title>
<ellipse cx="269" cy="206" rx="40" ry="18" style="fill: none; stroke: black;"/>
<text text-anchor="middle" x="269" y="211">automake</text>
</g>
<g id="edge16" class="edge"><title>Makefile.am-&gt;automake</title>
<path style="fill: none; stroke: black;" d="M267,152C268,160 268,169 268,178"/>
<polygon style="fill: black; stroke: black;" points="272,178 268,188 265,178 272,178"/>
</g>
<g id="node18" class="node"><title>Makefile.in</title>
<polygon style="fill: none; stroke: black;" points="309,260 229,260 229,296 309,296 309,260"/>
<text text-anchor="middle" x="269" y="283">Makefile.in</text>
</g>
<g id="edge17" class="edge"><title>automake-&gt;Makefile.in</title>
<path style="fill: none; stroke: black;" d="M269,224C269,232 269,241 269,250"/>
<polygon style="fill: black; stroke: black;" points="273,250 269,260 266,250 273,250"/>
</g>
<g id="edge27" class="edge"><title>Makefile.in-&gt;configure</title>
<path style="fill: none; stroke: black;" d="M258,296C242,320 214,366 195,396"/>
<polygon style="fill: black; stroke: black;" points="198,397 190,404 192,394 198,397"/>
</g>
<g id="node19" class="node"><title>ed</title>
<ellipse cx="266" cy="62" rx="27" ry="18" style="fill: none; stroke: black;"/>
<text text-anchor="middle" x="266" y="67">ed</text>
</g>
<g id="edge19" class="edge"><title>ed-&gt;Makefile.am</title>
<path style="fill: none; stroke: black;" d="M266,80C266,88 266,97 266,106"/>
<polygon style="fill: black; stroke: black;" points="270,106 266,116 263,106 270,106"/>
</g>
<g id="node24" class="node"><title>Makefile</title>
<polygon style="fill: none; stroke: black;" points="209,480 145,480 145,516 209,516 209,480"/>
<text text-anchor="middle" x="177" y="503">Makefile</text>
</g>
<g id="edge22" class="edge"><title>configure-&gt;Makefile</title>
<path style="fill: none; stroke: black;" d="M177,444C177,452 177,461 177,470"/>
<polygon style="fill: black; stroke: black;" points="181,470 177,480 174,470 181,470"/>
</g>
<g id="node25" class="node"><title>make</title>
<ellipse cx="177" cy="570" rx="28" ry="18" style="fill: none; stroke: black;"/>
<text text-anchor="middle" x="177" y="575">make</text>
</g>
<g id="edge23" class="edge"><title>Makefile-&gt;make</title>
<path style="fill: none; stroke: black;" d="M177,516C177,524 177,533 177,542"/>
<polygon style="fill: black; stroke: black;" points="181,542 177,552 174,542 181,542"/>
</g>
</g>
</svg>